HIERARCHY
ROOT Hips
{
	OFFSET 0.000000 0.000000 0.000000
	CHANNELS 6 Xposition Yposition Zposition Zrotation Yrotation Xrotation 
	JOINT LHipJoint
	{
		OFFSET 0.000000 0.000000 0.000000
		CHANNELS 3 Zrotation Yrotation Xrotation
		JOINT LeftUpLeg
		{
			OFFSET 1.363060 -1.794630 0.839290
			CHANNELS 3 Zrotation Yrotation Xrotation
			JOINT LeftLeg
			{
				OFFSET 2.448110 -6.726130 0.000000
				CHANNELS 3 Zrotation Yrotation Xrotation
				JOINT LeftFoot
				{
					OFFSET 2.562200 -7.039590 0.000000
					CHANNELS 3 Zrotation Yrotation Xrotation
					JOINT LeftToeBase
					{
						OFFSET 0.157640 -0.433110 2.322550
						CHANNELS 3 Zrotation Yrotation Xrotation
						End Site
						{
							OFFSET 0.000000 0.000000 0.000000
						}
					}
				}
			}
		}
	}
	JOINT RHipJoint
	{
		OFFSET 0.000000 0.000000 0.000000
		CHANNELS 3 Zrotation Yrotation Xrotation
		JOINT RightUpLeg
		{
			OFFSET -1.305520 -1.794630 0.839290
			CHANNELS 3 Zrotation Yrotation Xrotation
			JOINT RightLeg
			{
				OFFSET -2.542530 -6.985550 0.000000
				CHANNELS 3 Zrotation Yrotation Xrotation
				JOINT RightFoot
				{
					OFFSET -2.568260 -7.056230 0.000000
					CHANNELS 3 Zrotation Yrotation Xrotation
					JOINT RightToeBase
					{
						OFFSET -0.164730 -0.452590 2.363150
						CHANNELS 3 Zrotation Yrotation Xrotation
						End Site
						{
							OFFSET 0.000000 0.000000 0.000000
						}
					}
				}
			}
		}
	}
}
MOTION
Frames: 22
Frame Time: 0.008333
7.404135 15.380136 2.491911 8.817855 67.130833 34.066701 -8.900128 -0.602299 -4.461198 -13.297430 6.186829 -51.087242 -1.567570 4.406619 64.307452 2.372965 7.931930 -27.672164 -3.280900 0.000000 -45.737300 12.217406 2.766049 -4.919879 4.773711 -7.638600 -53.962650 -2.581982 -7.250552 89.413678 -1.497460 -5.591557 -21.453961 1.337601 0.000000 -33.781701
7.556611 15.450368 2.584454 8.706239 66.900461 33.832800 -8.950853 -0.522013 -4.519629 -12.998226 6.550855 -49.652536 -1.624840 4.296721 63.277975 2.342974 8.043402 -27.117010 -3.221600 -0.000000 -47.128901 12.055686 2.877256 -4.838014 5.340066 -7.572107 -55.122572 -2.371265 -7.210875 88.139513 -1.534888 -5.598725 -21.570968 1.363100 0.000000 -33.345000
7.710119 15.527536 2.681090 8.574830 66.617599 33.602304 -8.999084 -0.438817 -4.570778 -12.677768 6.916618 -48.203526 -1.676432 4.179701 62.146037 2.286534 8.074660 -26.321622 -3.093500 -0.000000 -48.702300 11.889817 2.973799 -4.738933 5.907431 -7.474816 -56.226403 -2.137494 -7.156086 86.647257 -1.574498 -5.609765 -21.608985 1.380300 0.000000 -33.188600
7.865269 15.610867 2.781601 8.409346 66.287976 33.367989 -9.049142 -0.352761 -4.610457 -12.330869 7.287058 -46.771348 -1.719164 4.060306 60.940894 2.202255 8.014615 -25.273420 -2.893899 0.000000 -50.438000 11.716766 3.052178 -4.620170 6.491008 -7.344736 -57.269097 -1.881787 -7.083000 84.930793 -1.618427 -5.635678 -21.567251 1.391000 0.000000 -33.370200
8.022310 15.699356 2.885736 8.203305 65.918938 33.126220 -9.104202 -0.264027 -4.637293 -11.955996 7.668349 -45.382091 -1.750574 3.942949 59.693311 2.091522 7.861688 -23.971179 -2.627999 0.000000 -52.310300 11.535002 3.109014 -4.481023 7.101958 -7.182892 -58.241025 -1.605478 -6.989595 82.984953 -1.668493 -5.684493 -21.449699 1.396500 -0.000000 -33.902300
8.181493 15.791987 2.993365 7.955401 65.516968 32.878044 -9.166573 -0.172669 -4.651611 -11.554484 8.068259 -44.057467 -1.769587 3.831631 58.430569 1.958454 7.622701 -22.426343 -2.308300 -0.000000 -54.291000 11.343546 3.141947 -4.321576 7.747660 -6.990690 -59.132435 -1.309817 -6.874296 80.804188 -1.725813 -5.758954 -21.263642 1.397000 -0.000000 -34.748900
8.342827 15.887682 3.104334 7.671563 65.088501 32.628346 -9.237412 -0.078548 -4.655678 -11.131635 8.495594 -42.811273 -1.776336 3.729467 57.175127 1.809275 7.311363 -20.659943 -1.952101 -0.000000 -56.354500 11.142636 3.149459 -4.143173 8.430221 -6.771988 -59.930512 -0.996188 -6.736141 78.384147 -1.790498 -5.856194 -21.017093 1.391700 -0.000001 -35.823800
8.506154 15.985345 3.218590 7.364300 64.639625 32.385550 -9.316447 0.018356 -4.653469 -10.694686 8.957828 -41.647620 -1.772093 3.638332 55.942891 1.651444 6.945036 -18.701272 -1.579200 0.000000 -58.481500 10.933940 3.131268 -3.948419 9.145941 -6.532571 -60.621405 -0.666264 -6.574858 75.723790 -1.861400 -5.967528 -20.717295 1.378299 -0.000000 -36.993600
8.671125 16.083822 3.336070 7.051043 64.176601 32.159864 -9.402139 0.117970 -4.650026 -10.252442 9.459239 -40.561560 -1.758872 3.558880 54.743748 1.492693 6.542189 -16.584353 -1.208700 -0.000000 -60.661300 10.720446 3.088283 -3.741156 9.886659 -6.280602 -61.190722 -0.322020 -6.390627 72.827021 -1.936181 -6.080255 -20.369277 1.353701 0.000000 -38.096200
8.837446 16.182048 3.456754 6.748906 63.704493 31.961252 -9.492654 0.220319 -4.649726 -9.813715 10.000202 -39.542711 -1.739360 3.490808 53.580506 1.339985 6.118770 -14.344318 -0.856800 0.000000 -62.890700 10.505285 3.022600 -3.524795 10.641978 -6.024010 -61.628200 0.034123 -6.183207 69.701117 -2.011443 -6.180479 -19.969001 1.313900 0.000000 -39.004700
9.004770 16.278932 3.580547 6.474549 63.228457 31.798703 -9.585739 0.325185 -4.656365 -9.385762 10.576257 -38.576555 -1.716272 3.432981 52.452645 1.198817 5.686141 -12.015382 -0.535900 0.000000 -65.169000 10.292248 2.937225 -3.302745 11.399819 -5.771329 -61.926933 0.399237 -5.952179 66.359062 -2.083181 -6.256382 -19.505578 1.254500 0.000000 -39.635500
9.172691 16.373441 3.707357 6.242075 62.753026 31.678913 -9.679176 0.432221 -4.672591 -8.974026 11.178598 -37.647214 -1.692150 3.383754 51.357540 1.072768 5.249109 -9.629210 -0.254600 0.000000 -67.488999 10.085242 2.835862 -3.077624 12.148694 -5.529544 -62.085453 0.769892 -5.696539 62.818535 -2.147404 -6.301483 -18.961740 1.171700 0.000000 -39.973200
9.340986 16.464609 3.836990 6.060207 62.282441 31.605317 -9.771544 0.540959 -4.699290 -8.580996 11.795933 -36.741413 -1.669179 3.341452 50.292339 0.963445 4.805291 -7.213203 -0.018499 -0.000000 -69.828900 9.887674 2.722598 -2.850677 12.879017 -5.303429 -62.108653 1.142219 -5.414500 59.100886 -2.200705 -6.316616 -18.315539 1.062500 -0.000000 -40.085300
9.509500 16.551529 3.969208 5.931830 61.819635 31.578632 -9.862139 0.650840 -4.735775 -8.206390 12.414630 -35.849575 -1.648887 3.304563 49.257332 0.870831 4.345899 -4.791931 0.168200 0.000000 -72.143300 9.702629 2.601503 -2.621948 13.583960 -5.094783 -62.006160 1.511994 -5.103678 55.230892 -2.240966 -6.311013 -17.545720 0.924700 0.000001 -40.094500
9.678148 16.633305 4.103707 5.854545 61.366814 31.595791 -9.951058 0.761024 -4.780178 -7.847437 13.021329 -34.967885 -1.632181 3.272066 48.256558 0.793870 3.858316 -2.387050 0.301200 -0.000000 -74.361400 9.532552 2.476666 -2.390439 14.259421 -4.902250 -61.791517 1.874649 -4.761283 51.235639 -2.267585 -6.301030 -16.634337 0.757700 0.000000 -40.162100
9.846899 16.709101 4.240135 5.821649 60.925597 31.651187 -10.038914 0.870456 -4.829811 -7.499634 13.603602 -34.097549 -1.619255 3.243405 47.299253 0.731113 3.329522 -0.019104 0.376200 0.000000 -76.388900 9.379533 2.351956 -2.155061 14.903619 -4.723773 -61.479069 2.225378 -4.384828 47.144972 -2.281679 -6.308517 -15.570410 0.561000 -0.000000 -40.451800
10.015778 16.778157 4.378128 5.824402 60.496919 31.737734 -10.126551 0.978073 -4.881874 -7.158992 14.151496 -33.243769 -1.609709 3.218530 46.399821 0.681349 2.750880 2.291052 0.388900 -0.000001 -78.115500 9.245157 2.231135 -1.914996 15.516243 -4.556347 -61.083684 2.559179 -3.972871 42.992232 -2.285740 -6.356864 -14.352318 0.334300 -0.000000 -41.103000
10.184807 16.839682 4.517300 5.855359 60.082226 31.848376 -10.214570 1.082721 -4.933817 -6.822090 14.657419 -32.414007 -1.602589 3.197750 45.577082 0.644036 2.123405 4.520528 0.337000 0.000000 -79.427300 9.130713 2.118081 -1.671502 16.097476 -4.400943 -60.618575 2.871064 -3.526339 38.817230 -2.282943 -6.466719 -12.989535 0.077300 -0.000001 -42.198800
10.353910 16.892953 4.657375 5.910153 59.682818 31.976446 -10.302930 1.183502 -4.983766 -6.488459 15.116806 -31.615972 -1.596484 3.181569 44.853017 0.619336 1.461779 6.643218 0.223300 0.000000 -80.219499 9.037168 2.016789 -1.428451 16.646838 -4.263529 -60.096713 3.156262 -3.049998 34.671206 -2.276207 -6.650598 -11.505290 -0.210100 0.000000 -43.737699
10.522990 16.937151 4.798100 5.988282 59.300383 32.116087 -10.390736 1.279776 -5.031042 -6.160127 15.529996 -30.856487 -1.589719 3.170666 44.251665 0.607927 0.797609 8.628020 0.058199 -0.000000 -80.421300 8.964951 1.931162 -1.192429 17.161903 -4.152921 -59.534411 3.409615 -2.554443 30.627914 -2.268464 -6.913008 -9.939410 -0.525600 -0.000000 -45.620401
10.691977 16.971806 4.939139 6.099267 58.938694 32.266600 -10.476258 1.372068 -5.074272 -5.844493 15.890776 -30.137115 -1.579658 3.165386 43.795922 0.610827 0.180174 10.445857 -0.137501 -0.000000 -79.951100 8.913948 1.864191 -0.976979 17.647442 -4.102155 -58.944268 3.631492 -2.054352 26.757112 -2.256413 -7.225006 -8.342543 -0.861799 0.000000 -47.678400
10.860551 16.996054 5.080479 6.246841 58.598117 32.423316 -10.557330 1.460423 -5.114429 -5.547299 16.207739 -29.464047 -1.564346 3.166740 43.509659 0.628610 -0.328220 12.059902 -0.333100 -0.000000 -78.828200 8.882422 1.816995 -0.791214 18.099876 -4.117925 -58.358486 3.817817 -1.572790 23.181669 -2.241788 -7.569089 -6.783809 -1.205600 -0.000000 -49.685300
